#!OML:ASF F:\VICON\USERDATA\INSTALL\rory3\rory3.ASF
:FULLY-SPECIFIED
:DEGREES
2759
root 0.478884 16.0019 0.208004 -6.99849 1.37008 -1.56124
lowerback 6.03729 -0.11759 -3.18298
upperback 0.0813677 -0.417231 -1.1393
thorax -3.28894 -0.165571 0.647752
lowerneck 5.95185 -11.2898 -18.4522
upperneck 17.8407 -17.8779 13.1882
head 7.36611 -9.30185 6.11804
rclavicle 4.22417e-015 7.95139e-015
rhumerus -28.8252 -7.51446 -83.994
rradius 23.1012
rwrist 13.429
rhand -15.6061 12.4342
rfingers 7.12502
rthumb 10.5801 -17.2795
lclavicle 4.22417e-015 7.95139e-015
lhumerus -31.8817 18.3868 70.0023
lradius 24.5946
lwrist 10.5143
lhand -12.669 10.3345
lfingers 7.12502
lthumb 13.4122 39.8827
rfemur 12.9385 6.86932 18.9634
rtibia 7.8658
rfoot -10.4112 -9.71
rtoes -4.22455
lfemur 14.8208 -17.9112 -20.2247
ltibia 3.9065
lfoot -9.18613 13.8005
ltoes -11.2479
2760
root 0.479359 16.0019 0.201442 -7.07437 1.27622 -1.55461
lowerback 5.89502 -0.12256 -3.13593
upperback 0.198603 -0.409753 -1.09584
thorax -3.08803 -0.165999 0.664846
lowerneck 6.13795 -11.237 -18.5543
upperneck 17.1169 -17.7894 13.3767
head 7.10847 -9.26144 6.22102
rclavicle -5.86415e-015 -1.19271e-014
rhumerus -28.488 -6.64423 -84.5324
rradius 23.4524
rwrist 12.6908
rhand -15.6184 12.0134
rfingers 7.12502
rthumb 10.5682 -17.7009
lclavicle -5.86415e-015 -1.19271e-014
lhumerus -31.1089 17.554 70.5584
lradius 25.4383
lwrist 11.5691
lhand -12.6775 10.6611
lfingers 7.12502
lthumb 13.4041 40.2099
rfemur 12.9548 6.96623 18.9697
rtibia 7.89531
rfoot -10.3746 -9.7351
rtoes -4.39444
lfemur 14.859 -17.8182 -20.2412
ltibia 3.97014
lfoot -9.27294 13.8
ltoes -10.9706
2761
root 0.479692 16.0021 0.192561 -7.13621 1.19526 -1.69027
lowerback 5.79756 -0.122369 -2.93631
upperback 0.275655 -0.387526 -1.01349
thorax -2.95507 -0.159585 0.635529
lowerneck 6.36838 -11.1937 -18.6649
upperneck 16.4495 -17.7277 13.5621
head 6.86899 -9.2369 6.3239
rclavicle -9.93923e-016 2.54444e-014
rhumerus -28.2346 -6.02112 -84.9536
rradius 23.7814
rwrist 12.0986
rhand -15.4836 11.7255
rfingers 7.12502
rthumb 10.6983 -17.9821
lclavicle -9.93923e-016 2.54444e-014
lhumerus -30.3582 16.6374 71.1341
lradius 26.1909
lwrist 12.6089
lhand -12.9234 11.027
lfingers 7.12502
lthumb 13.1671 40.5912
rfemur 12.958 7.02972 19.1264
rtibia 7.91434
rfoot -10.3397 -9.71709
rtoes -4.13756
lfemur 14.8592 -17.7611 -20.0868
ltibia 4.04495
lfoot -9.31041 13.7921
ltoes -10.9629
2762
root 0.479493 16.0023 0.182088 -7.16401 1.13622 -1.65466
lowerback 5.79733 -0.0714433 -2.92848
upperback 0.245458 -0.319044 -0.983466
thorax -2.98821 -0.124773 0.656486
lowerneck 6.77038 -11.1482 -18.7423
upperneck 15.8279 -17.6927 13.7283
head 6.617 -9.23257 6.4245
rclavicle 5.06901e-015 3.18055e-015
rhumerus -28.1828 -5.87627 -85.1292
rradius 24.0966
rwrist 12.3409
rhand -15.0638 11.6215
rfingers 7.12502
rthumb 11.1032 -18.0648
lclavicle 5.06901e-015 3.18055e-015
lhumerus -29.7535 15.5958 71.6553
lradius 26.8479
lwrist 13.5169
lhand -13.1114 11.0909
lfingers 7.12502
lthumb 12.9858 40.6668
rfemur 12.9463 7.09495 19.0933
rtibia 7.90425
rfoot -10.3306 -9.67804
rtoes -3.80382
lfemur 14.805 -17.7022 -20.1097
ltibia 4.14083
lfoot -9.29655 13.7669
ltoes -10.9663
2763
root 0.479731 16.0024 0.172284 -7.17907 1.12827 -1.56681
lowerback 5.78374 -0.0722354 -2.99186
upperback 0.23948 -0.323331 -0.965374
thorax -2.9862 -0.125895 0.71096
lowerneck 7.02027 -11.0888 -18.8165
upperneck 15.2551 -17.6157 13.8754
head 6.39815 -9.20182 6.51271
rclavicle 3.62782e-015 6.36111e-015
rhumerus -28.0182 -5.69892 -85.3584
rradius 24.3804
rwrist 12.7991
rhand -14.7019 11.4258
rfingers 7.12502
rthumb 11.4523 -18.2414
lclavicle 3.62782e-015 6.36111e-015
lhumerus -29.2287 14.8155 72.0084
lradius 27.4761
lwrist 14.1672
lhand -13.1192 10.8082
lfingers 7.12502
lthumb 12.9782 40.3845
rfemur 12.9329 7.1169 18.9957
rtibia 7.89141
rfoot -10.3228 -9.67954
rtoes -3.57843
lfemur 14.746 -17.6854 -20.1975
ltibia 4.21592
lfoot -9.27287 13.7653
ltoes -11.0745
2764
root 0.478233 16.0022 0.163806 -7.19459 1.05783 -1.57185
lowerback 5.72487 -0.108504 -2.98928
upperback 0.290351 -0.366116 -0.910038
thorax -2.89881 -0.148452 0.769744
lowerneck 7.04378 -11.018 -18.9254
upperneck 14.8113 -17.4994 14.0153
head 6.25456 -9.14445 6.59185
rclavicle -1.14301e-015 7.95139e-015
rhumerus -27.7896 -5.02481 -85.8462
rradius 24.6896
rwrist 12.4914
rhand -14.5096 11.0828
rfingers 7.12502
rthumb 11.6377 -18.574
lclavicle -1.14301e-015 7.95139e-015
lhumerus -28.697 14.1234 72.3131
lradius 28.1804
lwrist 14.9611
lhand -13.1111 10.8256
lfingers 7.12502
lthumb 12.9861 40.4014
rfemur 12.8544 7.18608 19.0128
rtibia 7.98721
rfoot -10.2921 -9.68027
rtoes -3.55615
lfemur 14.8284 -17.6172 -20.1763
ltibia 4.05012
lfoot -9.168 13.7577
ltoes -10.926
2765
root 0.477001 16.0026 0.155353 -7.24649 1.00172 -1.61392
lowerback 5.73212 -0.139656 -2.92471
upperback 0.34094 -0.400924 -0.859118
thorax -2.84944 -0.167392 0.788781
lowerneck 7.11952 -10.9548 -18.992
upperneck 14.3313 -17.3939 14.1359
head 6.08761 -9.09277 6.66096
rclavicle 7.45443e-015 -9.54166e-015
rhumerus -27.6003 -4.30605 -86.3563
rradius 24.8866
rwrist 11.6231
rhand -14.5714 11.3781
rfingers 7.12502
rthumb 11.5781 -18.2821
lclavicle 7.45443e-015 -9.54166e-015
lhumerus -28.1914 13.4057 72.6314
lradius 28.9331
lwrist 15.6841
lhand -13.1811 11.268
lfingers 7.12502
lthumb 12.9187 40.8481
rfemur 12.8573 7.23535 19.0773
rtibia 8.00925
rfoot -10.2584 -9.72566
rtoes -3.93795
lfemur 14.8874 -17.569 -20.1309
ltibia 3.99448
lfoot -9.12535 13.7781
ltoes -11.1554
2766
root 0.476236 16.0038 0.145482 -7.29441 0.975215 -1.57424
lowerback 5.76793 -0.153208 -2.93369
upperback 0.373644 -0.419187 -0.826677
thorax -2.8348 -0.17666 0.828827
lowerneck 7.23327 -10.9223 -19.0349
upperneck 13.8905 -17.3259 14.1634
head 5.92425 -9.06277 6.6937
rclavicle -7.30534e-015 -2.46493e-014
rhumerus -27.4593 -3.63235 -86.7669
rradius 25.1305
rwrist 10.9613
rhand -14.986 11.9601
rfingers 7.12502
rthumb 11.1783 -17.7221
lclavicle -7.30534e-015 -2.46493e-014
lhumerus -27.7387 12.6862 72.9599
lradius 29.6917
lwrist 16.2072
lhand -13.2309 11.5148
lfingers 7.12502
lthumb 12.8706 41.0979
rfemur 12.9076 7.26862 19.0418
rtibia 7.92534
rfoot -10.1903 -9.7358
rtoes -4.38648
lfemur 14.8134 -17.5434 -20.1634
ltibia 4.14758
lfoot -9.24174 13.7897
ltoes -11.1932
2767
root 0.47467 16.0046 0.134821 -7.29803 0.914 -1.63746
lowerback 5.72762 -0.18241 -2.88966
upperback 0.414098 -0.449967 -0.732503
thorax -2.76888 -0.193222 0.903308
lowerneck 7.19383 -10.8994 -19.159
upperneck 13.6309 -17.269 14.1921
head 5.85326 -9.03598 6.72578
rclavicle -3.72721e-015 7.95139e-016
rhumerus -27.2633 -2.80565 -87.1719
rradius 25.3306
rwrist 10.5822
rhand -15.2497 11.889
rfingers 7.12502
rthumb 10.9239 -17.8068
lclavicle -3.72721e-015 7.95139e-016
lhumerus -27.2926 11.955 73.3152
lradius 30.3975
lwrist 16.7523
lhand -13.2974 11.7045
lfingers 7.12502
lthumb 12.8065 41.2917
rfemur 12.9631 7.31956 19.121
rtibia 7.72808
rfoot -10.1119 -9.74086
rtoes -3.95712
lfemur 14.5897 -17.5044 -20.0423
ltibia 4.49795
lfoot -9.40418 13.72
ltoes -11.1864
2768
root 0.473339 16.0065 0.123289 -7.29548 0.84424 -1.74746
lowerback 5.68417 -0.203197 -2.7608
upperback 0.456905 -0.464301 -0.643072
thorax -2.70004 -0.202674 0.923926
lowerneck 7.16879 -10.8628 -19.2962
upperneck 13.3813 -17.2055 14.2788
head 5.78789 -9.00555 6.78083
rclavicle -4.62174e-015 7.95139e-015
rhumerus -27.0304 -2.06135 -87.5811
rradius 25.3434
rwrist 10.295
rhand -15.2736 11.6903
rfingers 7.12502
rthumb 10.9009 -18.0068
lclavicle -4.62174e-015 7.95139e-015
lhumerus -26.8379 11.3338 73.6157
lradius 30.9954
lwrist 17.0921
lhand -13.3968 11.9687
lfingers 7.12502
lthumb 12.7107 41.5618
rfemur 12.9766 7.37267 19.248
rtibia 7.57563
rfoot -10.0081 -9.75001
rtoes -3.68449
lfemur 14.3967 -17.4621 -19.8716
ltibia 4.76176
lfoot -9.48471 13.6623
ltoes -11.0464
2769
root 0.472142 16.0084 0.110916 -7.30717 0.801234 -1.8879
lowerback 5.71634 -0.199265 -2.55814
upperback 0.474992 -0.445455 -0.59205
thorax -2.70114 -0.195505 0.8615
lowerneck 7.32087 -10.8361 -19.3737
upperneck 12.997 -17.179 14.4294
head 5.65762 -8.99562 6.85738
rclavicle -2.10215e-014 -2.38542e-015
rhumerus -26.9358 -1.54541 -87.9696
rradius 25.4882
rwrist 10.0438
rhand -15.4315 11.9341
rfingers 7.12502
rthumb 10.7485 -17.7709
lclavicle -2.10215e-014 -2.38542e-015
lhumerus -26.4236 10.6407 73.8693
lradius 31.6035
lwrist 17.4345
lhand -13.4721 12.1005
lfingers 7.12502
lthumb 12.638 41.6982
rfemur 13.0098 7.39615 19.4008
rtibia 7.42301
rfoot -9.89251 -9.76229
rtoes -3.90979
lfemur 14.2261 -17.4497 -19.6793
ltibia 5.01052
lfoot -9.5483 13.6408
ltoes -10.973
2770
root 0.470198 16.0109 0.0984623 -7.26428 0.824065 -1.81383
lowerback 5.69891 -0.203539 -2.59297
upperback 0.497126 -0.452887 -0.611808
thorax -2.6682 -0.199472 0.861097
lowerneck 7.37455 -10.8397 -19.3264
upperneck 12.6892 -17.1664 14.4882
head 5.55118 -8.98563 6.87683
rclavicle -1.55052e-014 -2.38542e-015
rhumerus -26.845 -1.20161 -88.3359
rradius 25.6973
rwrist 9.92214
rhand -15.4702 12.1598
rfingers 7.12502
rthumb 10.7112 -17.5472
lclavicle -1.55052e-014 -2.38542e-015
lhumerus -25.9962 9.79795 74.1654
lradius 32.276
lwrist 18.0953
lhand -13.7139 11.754
lfingers 7.12502
lthumb 12.4049 41.366
rfemur 12.9453 7.38375 19.3128
rtibia 7.36925
rfoot -9.70849 -9.78786
rtoes -4.49947
lfemur 14.076 -17.4693 -19.7165
ltibia 5.08724
lfoot -9.50079 13.6579
ltoes -10.5037
2771
root 0.468461 16.013 0.086611 -7.26493 0.855512 -1.73085
lowerback 5.69089 -0.222232 -2.6454
upperback 0.555238 -0.48002 -0.626462
thorax -2.60258 -0.213735 0.877293
lowerneck 7.38866 -10.8672 -19.2339
upperneck 12.3968 -17.1693 14.4758
head 5.44919 -8.98137 6.86179
rclavicle 9.0944e-015 5.56597e-015
rhumerus -26.69 -0.981835 -88.6554
rradius 25.858
rwrist 9.94928
rhand -15.404 12.1378
rfingers 7.12502
rthumb 10.7751 -17.5658
lclavicle 9.0944e-015 5.56597e-015
lhumerus -25.5764 8.96246 74.4847
lradius 32.938
lwrist 18.7975
lhand -13.9952 11.5842
lfingers 7.12502
lthumb 12.1337 41.2124
rfemur 12.8919 7.36481 19.2185
rtibia 7.38878
rfoot -9.63975 -9.77252
rtoes -4.81283
lfemur 14.051 -17.4922 -19.794
ltibia 5.03921
lfoot -9.40836 13.6716
ltoes -10.1207
2772
root 0.468145 16.0128 0.0748999 -7.2575 0.873814 -1.63731
lowerback 5.70042 -0.233784 -2.67738
upperback 0.577048 -0.497899 -0.64876
thorax -2.58475 -0.222797 0.873646
lowerneck 7.48589 -10.8814 -19.2131
upperneck 12.1356 -17.1787 14.4895
head 5.35332 -8.98687 6.87072
rclavicle -6.65929e-015 7.15625e-015
rhumerus -26.6211 -0.661654 -89.0032
rradius 26.074
rwrist 9.91313
rhand -15.4531 11.984
rfingers 7.12502
rthumb 10.7277 -17.7221
lclavicle -6.65929e-015 7.15625e-015
lhumerus -25.2182 8.59665 74.63
lradius 33.3082
lwrist 18.7567
lhand -13.985 12.1618
lfingers 7.12502
lthumb 12.1436 41.7894
rfemur 12.7944 7.36151 19.1077
rtibia 7.48313
rfoot -9.6606 -9.77113
rtoes -4.77702
lfemur 14.0888 -17.4957 -19.8983
ltibia 4.87848
lfoot -9.28672 13.6783
ltoes -9.78688
2773
root 0.466981 16.0128 0.0615602 -7.25796 0.882468 -1.62887
lowerback 5.77987 -0.265906 -2.67728
upperback 0.57541 -0.542807 -0.625042
thorax -2.62913 -0.244494 0.902089
lowerneck 7.53774 -10.8471 -19.2501
upperneck 11.9486 -17.1317 14.5588
head 5.28765 -8.96468 6.90899
rclavicle -1.11319e-014 3.97569e-015
rhumerus -26.6111 -0.0700794 -89.4086
rradius 26.2537
rwrist 9.67236
rhand -15.6807 12.0622
rfingers 7.12502
rthumb 10.5082 -17.6551
lclavicle -1.11319e-014 3.97569e-015
lhumerus -24.9264 8.38021 74.7372
lradius 33.7086
lwrist 18.6127
lhand -13.6791 12.2887
lfingers 7.12502
lthumb 12.4385 41.8985
rfemur 12.689 7.35611 19.085
rtibia 7.56406
rfoot -9.719 -9.75776
rtoes -4.62131
lfemur 14.1029 -17.5058 -19.8931
ltibia 4.73485
lfoot -9.15292 13.6761
ltoes -10.0151
